<?xml version="1.0" encoding="utf-8" standalone="no"?>
<!DOCTYPE svg PUBLIC "-//W3C//DTD SVG 1.1//EN"
  "http://www.w3.org/Graphics/SVG/1.1/DTD/svg11.dtd">
<svg xmlns:xlink="http://www.w3.org/1999/xlink" width="1728pt" height="576pt" viewBox="0 0 1728 576" xmlns="http://www.w3.org/2000/svg" version="1.1">
 <metadata>
  <rdf:RDF xmlns:dc="http://purl.org/dc/elements/1.1/" xmlns:cc="http://creativecommons.org/ns#" xmlns:rdf="http://www.w3.org/1999/02/22-rdf-syntax-ns#">
   <cc:Work>
    <dc:type rdf:resource="http://purl.org/dc/dcmitype/StillImage"/>
    <dc:date>2023-05-25T05:56:21.960134</dc:date>
    <dc:format>image/svg+xml</dc:format>
    <dc:creator>
     <cc:Agent>
      <dc:title>Matplotlib v3.7.1, https://matplotlib.org/</dc:title>
     </cc:Agent>
    </dc:creator>
   </cc:Work>
  </rdf:RDF>
 </metadata>
 <defs>
  <style type="text/css">*{stroke-linejoin: round; stroke-linecap: butt}</style>
 </defs>
 <g id="figure_1">
  <g id="patch_1">
   <path d="M 0 576 
L 1728 576 
L 1728 0 
L 0 0 
z
" style="fill: #ffffff"/>
  </g>
  <g id="axes_1">
   <g id="patch_2">
    <path d="M 216 270.72 
L 609.882353 270.72 
L 609.882353 69.12 
L 216 69.12 
z
" style="fill: #eeeeee"/>
   </g>
   <g id="matplotlib.axis_1"/>
   <g id="matplotlib.axis_2"/>
   <g id="line2d_1">
    <path d="M 233.903743 261.556364 
L 374.466083 261.556364 
L 374.652629 78.283636 
L 382.953922 78.283636 
L 383.140468 261.556364 
L 525.568267 261.556364 
L 525.754813 78.283636 
L 534.056106 78.283636 
L 534.242652 261.556364 
L 591.97861 261.556364 
L 591.97861 261.556364 
" clip-path="url(#pe61333e57d)" style="fill: none; stroke: #de1334; stroke-width: 2; stroke-linecap: round"/>
   </g>
   <g id="line2d_2">
    <path d="M 233.903743 78.283636 
L 374.559356 78.283636 
L 374.745902 261.556364 
L 383.047195 261.556364 
L 383.233741 78.283636 
L 525.66154 78.283636 
L 525.848086 261.556364 
L 534.149379 261.556364 
L 534.335925 78.283636 
L 591.97861 78.283636 
L 591.97861 78.283636 
" clip-path="url(#pe61333e57d)" style="fill: none; stroke-dasharray: 7.4,3.2; stroke-dashoffset: 0; stroke: #6752ff; stroke-width: 2"/>
   </g>
   <g id="line2d_3">
    <path d="M 233.903743 159.663315 
L 236.888478 209.841223 
L 239.873212 195.76275 
L 242.857947 230.259658 
L 246.029227 196.81553 
L 248.827416 180.30498 
L 251.81215 207.05307 
L 251.905423 207.001242 
L 254.796885 205.372187 
L 257.781619 191.575496 
L 260.766354 206.391917 
L 263.844361 203.833375 
L 266.735823 198.546199 
L 269.720557 205.353485 
L 272.705292 185.070786 
L 275.690026 206.102106 
L 278.768034 196.860886 
L 281.659495 179.817621 
L 284.64423 229.474955 
L 287.628964 210.698001 
L 290.613699 222.094789 
L 293.691706 204.891798 
L 296.583168 199.043892 
L 299.661175 207.551299 
L 302.552637 208.839266 
L 305.537371 227.609813 
L 308.708652 211.22337 
L 311.50684 204.170568 
L 314.491575 224.985634 
L 317.662855 206.188378 
L 320.461044 197.165319 
L 323.445778 213.146611 
L 326.430513 195.639866 
L 329.415247 207.451782 
L 332.399982 202.779638 
L 335.291443 212.508813 
L 335.384716 212.462239 
L 338.369451 182.31269 
L 341.354185 207.612511 
L 344.33892 188.143505 
L 347.323654 200.678655 
L 350.308389 189.758321 
L 353.19985 190.393519 
L 353.293123 190.628476 
L 356.277858 211.391035 
L 359.262592 188.013003 
L 362.527145 207.648942 
L 365.232061 218.550743 
L 368.216796 196.142983 
L 371.20153 200.988484 
L 374.092992 197.818268 
L 374.186265 197.120717 
L 377.170999 146.738598 
L 380.155734 215.845351 
L 383.047195 201.374682 
L 383.233741 195.959205 
L 386.125203 84.952692 
L 389.109937 84.521263 
L 392.001399 78.283658 
L 392.094671 78.634403 
L 395.079406 113.096245 
L 398.06414 210.041485 
L 401.142148 217.361578 
L 403.940337 227.643052 
L 404.033609 227.425508 
L 407.018344 201.065973 
L 409.909806 201.899723 
L 410.096351 203.266118 
L 412.987813 230.714649 
L 415.972547 217.518626 
L 418.957282 221.260492 
L 421.942016 218.050729 
L 424.833478 220.189693 
L 425.020024 219.431795 
L 427.911485 203.712327 
L 430.802947 202.289838 
L 430.989493 203.199898 
L 433.787681 221.213672 
L 433.880954 221.178017 
L 436.865689 204.431863 
L 439.75715 214.926 
L 439.850423 214.400664 
L 442.741885 178.321784 
L 442.835158 178.836583 
L 445.819892 232.393976 
L 448.8979 217.650469 
L 451.789361 210.488726 
L 454.680823 211.910096 
L 454.867369 211.654678 
L 457.665557 206.588837 
L 457.852103 207.19116 
L 460.650292 219.480065 
L 460.743565 219.376785 
L 463.821572 206.631752 
L 466.619761 203.078036 
L 466.806307 203.803405 
L 469.604495 217.745739 
L 469.791041 216.339641 
L 472.682503 187.922318 
L 475.76051 197.814729 
L 478.558699 201.025833 
L 478.745245 200.700317 
L 481.636706 194.253606 
L 484.528168 195.346647 
L 484.90126 197.101704 
L 487.512902 210.303162 
L 487.606175 210.133661 
L 490.497637 196.697273 
L 490.59091 196.757491 
L 493.482371 204.674384 
L 493.76219 202.490515 
L 496.560379 178.468322 
L 499.45184 186.373669 
L 500.011478 192.208733 
L 502.529848 218.706136 
L 505.421309 223.732129 
L 505.794401 218.390512 
L 508.406044 178.302945 
L 508.59259 180.444703 
L 511.390778 222.486933 
L 511.484051 222.397824 
L 514.655332 205.21987 
L 517.360247 195.968266 
L 517.640066 197.755636 
L 520.344982 217.013368 
L 520.624801 213.573675 
L 523.422989 176.161985 
L 526.314451 169.78769 
L 526.780816 182.012933 
L 529.392458 251.467317 
L 532.28392 261.556364 
L 532.843557 242.907947 
L 535.548473 153.437159 
L 538.253389 96.259699 
L 538.346662 96.401371 
L 542.637218 120.657041 
L 544.222858 130.073284 
L 545.155587 160.115871 
L 547.207592 226.938017 
L 547.394138 224.698182 
L 550.378873 181.584869 
L 553.363607 164.593667 
L 556.161796 158.363666 
L 556.907979 162.320971 
L 559.239803 174.581689 
L 562.131265 178.994412 
L 563.530359 213.711945 
L 565.115999 253.264765 
L 565.675637 242.989208 
L 568.100734 197.132433 
L 568.473825 199.753034 
L 571.085468 219.245201 
L 571.178741 219.116495 
L 574.070203 213.542591 
L 576.868391 187.54298 
L 577.054937 185.807379 
L 578.360758 198.01687 
L 580.039672 213.808261 
L 581.625312 199.721535 
L 583.024406 187.241792 
L 584.516773 194.122716 
L 586.009141 201.035249 
L 588.993875 239.478862 
L 591.97861 178.703405 
L 591.97861 178.703405 
" clip-path="url(#pe61333e57d)" style="fill: none; stroke: #0b2735; stroke-width: 2; stroke-linecap: round"/>
   </g>
   <g id="patch_3">
    <path d="M 216 270.72 
L 216 69.12 
" style="fill: none; stroke: #bcbcbc; stroke-width: 0.8; stroke-linejoin: miter; stroke-linecap: square"/>
   </g>
   <g id="patch_4">
    <path d="M 609.882353 270.72 
L 609.882353 69.12 
" style="fill: none; stroke: #bcbcbc; stroke-width: 0.8; stroke-linejoin: miter; stroke-linecap: square"/>
   </g>
   <g id="patch_5">
    <path d="M 216 270.72 
L 609.882353 270.72 
" style="fill: none; stroke: #bcbcbc; stroke-width: 0.8; stroke-linejoin: miter; stroke-linecap: square"/>
   </g>
   <g id="patch_6">
    <path d="M 216 69.12 
L 609.882353 69.12 
" style="fill: none; stroke: #bcbcbc; stroke-width: 0.8; stroke-linejoin: miter; stroke-linecap: square"/>
   </g>
   <g id="text_1">
    <text style="fill: #262626; font: 14.4px 'Serif'; text-anchor: middle" x="412.941176" y="63.12" transform="rotate(-0 412.941176 63.12)">Current Label: 0 | Prediction: 0 | Confidence: 0.20</text>
   </g>
   <g id="legend_1">
    <g id="patch_7">
     <path d="M 223 265.72 
L 304.590625 265.72 
Q 306.590625 265.72 306.590625 263.72 
L 306.590625 220.4075 
Q 306.590625 218.4075 304.590625 218.4075 
L 223 218.4075 
Q 221 218.4075 221 220.4075 
L 221 263.72 
Q 221 265.72 223 265.72 
z
" style="fill: #eeeeee; opacity: 0.8; stroke: #cccccc; stroke-width: 0.5; stroke-linejoin: miter"/>
    </g>
    <g id="line2d_4">
     <path d="M 225 226.505937 
L 235 226.505937 
L 245 226.505937 
" style="fill: none; stroke: #de1334; stroke-width: 2; stroke-linecap: round"/>
    </g>
    <g id="text_2">
     <text style="font: 10px 'Serif'; text-anchor: start" x="253" y="230.005937" transform="rotate(-0 253 230.005937)">cause</text>
    </g>
    <g id="line2d_5">
     <path d="M 225 241.184062 
L 235 241.184062 
L 245 241.184062 
" style="fill: none; stroke-dasharray: 7.4,3.2; stroke-dashoffset: 0; stroke: #6752ff; stroke-width: 2"/>
    </g>
    <g id="text_3">
     <text style="font: 10px 'Serif'; text-anchor: start" x="253" y="244.684062" transform="rotate(-0 253 244.684062)">result</text>
    </g>
    <g id="line2d_6">
     <path d="M 225 255.862187 
L 235 255.862187 
L 245 255.862187 
" style="fill: none; stroke: #0b2735; stroke-width: 2; stroke-linecap: round"/>
    </g>
    <g id="text_4">
     <text style="font: 10px 'Serif'; text-anchor: start" x="253" y="259.362187" transform="rotate(-0 253 259.362187)">grad_cam</text>
    </g>
   </g>
  </g>
  <g id="axes_2">
   <g id="patch_8">
    <path d="M 688.658824 270.72 
L 1082.541176 270.72 
L 1082.541176 69.12 
L 688.658824 69.12 
z
" style="fill: #eeeeee"/>
   </g>
   <g id="matplotlib.axis_3"/>
   <g id="matplotlib.axis_4"/>
   <g id="line2d_7">
    <path d="M 706.562567 261.556364 
L 796.570966 261.556364 
L 796.757512 78.283636 
L 805.338624 78.283636 
L 805.52517 261.556364 
L 947.67315 261.556364 
L 947.859696 78.283636 
L 956.440808 78.283636 
L 956.627354 261.556364 
L 1064.637433 261.556364 
L 1064.637433 261.556364 
" clip-path="url(#p1506feae56)" style="fill: none; stroke: #de1334; stroke-width: 2; stroke-linecap: round"/>
   </g>
   <g id="line2d_8">
    <path d="M 706.562567 78.283636 
L 796.664239 78.283636 
L 796.850785 261.556364 
L 805.431897 261.556364 
L 805.618443 78.283636 
L 947.766423 78.283636 
L 947.952969 261.556364 
L 956.534081 261.556364 
L 956.720627 78.283636 
L 1064.637433 78.283636 
L 1064.637433 78.283636 
" clip-path="url(#p1506feae56)" style="fill: none; stroke-dasharray: 7.4,3.2; stroke-dashoffset: 0; stroke: #6752ff; stroke-width: 2"/>
   </g>
   <g id="line2d_9">
    <path d="M 706.562567 234.240446 
L 709.640574 148.604609 
L 712.718582 136.764941 
L 715.51677 131.300333 
L 718.501505 136.2065 
L 724.004609 119.883235 
L 724.470974 118.499428 
L 727.455708 130.914119 
L 730.440443 122.869099 
L 733.425177 135.968359 
L 736.409912 107.369115 
L 739.581192 122.444017 
L 742.379381 128.237696 
L 745.364115 113.895526 
L 748.34885 123.643823 
L 751.52013 118.370558 
L 754.318319 115.935172 
L 757.303053 136.897502 
L 760.381061 119.262386 
L 763.365795 117.00956 
L 766.257257 112.046633 
L 769.241991 118.806313 
L 772.226726 106.387165 
L 775.584552 121.671926 
L 778.196195 130.621588 
L 781.180929 103.248847 
L 784.35221 108.168755 
L 787.150398 114.376418 
L 790.228406 111.197539 
L 793.026594 111.157438 
L 793.119867 111.044004 
L 796.011329 96.62352 
L 796.104602 97.555733 
L 799.089336 260.223663 
L 801.980798 261.556364 
L 802.074071 261.449566 
L 804.965532 245.369416 
L 805.058805 243.939947 
L 808.136813 121.743456 
L 811.121547 104.789609 
L 813.919736 102.4969 
L 814.013009 102.61006 
L 816.997743 120.215781 
L 819.982478 120.272585 
L 822.967212 124.071614 
L 825.951947 111.709357 
L 829.029954 112.037784 
L 831.921416 110.20555 
L 834.90615 120.215551 
L 838.450522 117.180377 
L 841.901622 115.037412 
L 843.860354 114.043708 
L 846.751815 117.451355 
L 846.845088 117.370846 
L 849.829823 105.601397 
L 852.814557 115.18766 
L 855.892564 115.753037 
L 858.784026 114.065141 
L 861.955306 105.71529 
L 864.753495 102.199846 
L 867.73823 110.015059 
L 870.629691 108.381619 
L 870.722964 108.46014 
L 873.707699 115.718059 
L 876.692433 108.576632 
L 879.677167 115.273445 
L 883.781177 109.749718 
L 885.646636 107.159933 
L 888.631371 110.150953 
L 892.642108 103.879058 
L 894.60084 100.749643 
L 897.958666 108.690689 
L 900.477036 115.945397 
L 900.570309 115.699467 
L 903.555043 94.454261 
L 906.539778 104.813456 
L 909.524512 95.689635 
L 912.789066 98.37992 
L 915.400708 99.659786 
L 915.587254 100.954171 
L 918.478716 125.175267 
L 921.556723 110.405512 
L 924.448185 104.281538 
L 927.339646 106.468897 
L 927.526192 105.933462 
L 930.324381 95.495408 
L 930.510927 96.609319 
L 933.309115 119.582631 
L 933.402388 119.499609 
L 936.387123 101.57454 
L 939.371857 105.839069 
L 942.543138 104.780903 
L 945.248053 105.062182 
L 945.527872 107.741773 
L 948.232788 136.847187 
L 948.60588 150.900453 
L 951.310795 256.715036 
L 954.202257 258.732242 
L 954.482076 254.790363 
L 957.280264 209.808478 
L 960.264999 126.921661 
L 963.249733 127.192289 
L 967.073924 124.403023 
L 969.219202 122.503323 
L 972.110664 115.363819 
L 972.29721 115.758773 
L 975.095398 123.586548 
L 975.281944 123.06384 
L 978.173406 112.434803 
L 981.064867 93.261764 
L 981.344686 96.617883 
L 984.142875 133.463529 
L 987.127609 127.864186 
L 990.112344 113.707602 
L 993.003805 110.197336 
L 993.563443 104.358093 
L 995.98854 78.283658 
L 996.268359 81.362889 
L 998.973274 115.145155 
L 999.066547 115.093572 
L 1002.144555 104.74646 
L 1004.942743 101.040579 
L 1005.409108 103.003212 
L 1007.927478 114.081866 
L 1008.020751 114.014716 
L 1010.912212 109.148837 
L 1011.378577 111.228793 
L 1013.896947 122.938936 
L 1014.270039 120.827749 
L 1016.881681 105.060926 
L 1017.1615 105.877564 
L 1020.426053 116.413792 
L 1022.85115 122.947806 
L 1023.597334 114.840203 
L 1025.835885 90.068193 
L 1025.929158 90.256827 
L 1028.913892 100.738031 
L 1031.898627 100.86997 
L 1034.790088 103.085523 
L 1036.189183 116.945152 
L 1037.774823 132.733692 
L 1038.427733 126.915063 
L 1040.759557 105.657677 
L 1041.599014 114.21422 
L 1043.837565 136.489866 
L 1046.729026 137.924153 
L 1048.781031 118.85748 
L 1049.713761 110.170015 
L 1051.112855 125.888729 
L 1052.698495 143.794015 
L 1053.444679 141.287547 
L 1055.68323 133.630883 
L 1058.667964 165.172481 
L 1058.761237 164.363588 
L 1061.652699 138.344494 
L 1064.637433 161.610371 
L 1064.637433 161.610371 
" clip-path="url(#p1506feae56)" style="fill: none; stroke: #0b2735; stroke-width: 2; stroke-linecap: round"/>
   </g>
   <g id="patch_9">
    <path d="M 688.658824 270.72 
L 688.658824 69.12 
" style="fill: none; stroke: #bcbcbc; stroke-width: 0.8; stroke-linejoin: miter; stroke-linecap: square"/>
   </g>
   <g id="patch_10">
    <path d="M 1082.541176 270.72 
L 1082.541176 69.12 
" style="fill: none; stroke: #bcbcbc; stroke-width: 0.8; stroke-linejoin: miter; stroke-linecap: square"/>
   </g>
   <g id="patch_11">
    <path d="M 688.658824 270.72 
L 1082.541176 270.72 
" style="fill: none; stroke: #bcbcbc; stroke-width: 0.8; stroke-linejoin: miter; stroke-linecap: square"/>
   </g>
   <g id="patch_12">
    <path d="M 688.658824 69.12 
L 1082.541176 69.12 
" style="fill: none; stroke: #bcbcbc; stroke-width: 0.8; stroke-linejoin: miter; stroke-linecap: square"/>
   </g>
   <g id="text_5">
    <text style="fill: #262626; font: 14.4px 'Serif'; text-anchor: middle" x="885.6" y="63.12" transform="rotate(-0 885.6 63.12)">Current Label: 0 | Prediction: 0 | Confidence: 0.24</text>
   </g>
   <g id="legend_2">
    <g id="patch_13">
     <path d="M 695.658824 265.72 
L 777.249449 265.72 
Q 779.249449 265.72 779.249449 263.72 
L 779.249449 220.4075 
Q 779.249449 218.4075 777.249449 218.4075 
L 695.658824 218.4075 
Q 693.658824 218.4075 693.658824 220.4075 
L 693.658824 263.72 
Q 693.658824 265.72 695.658824 265.72 
z
" style="fill: #eeeeee; opacity: 0.8; stroke: #cccccc; stroke-width: 0.5; stroke-linejoin: miter"/>
    </g>
    <g id="line2d_10">
     <path d="M 697.658824 226.505937 
L 707.658824 226.505937 
L 717.658824 226.505937 
" style="fill: none; stroke: #de1334; stroke-width: 2; stroke-linecap: round"/>
    </g>
    <g id="text_6">
     <text style="font: 10px 'Serif'; text-anchor: start" x="725.658824" y="230.005937" transform="rotate(-0 725.658824 230.005937)">cause</text>
    </g>
    <g id="line2d_11">
     <path d="M 697.658824 241.184062 
L 707.658824 241.184062 
L 717.658824 241.184062 
" style="fill: none; stroke-dasharray: 7.4,3.2; stroke-dashoffset: 0; stroke: #6752ff; stroke-width: 2"/>
    </g>
    <g id="text_7">
     <text style="font: 10px 'Serif'; text-anchor: start" x="725.658824" y="244.684062" transform="rotate(-0 725.658824 244.684062)">result</text>
    </g>
    <g id="line2d_12">
     <path d="M 697.658824 255.862187 
L 707.658824 255.862187 
L 717.658824 255.862187 
" style="fill: none; stroke: #0b2735; stroke-width: 2; stroke-linecap: round"/>
    </g>
    <g id="text_8">
     <text style="font: 10px 'Serif'; text-anchor: start" x="725.658824" y="259.362187" transform="rotate(-0 725.658824 259.362187)">grad_cam</text>
    </g>
   </g>
  </g>
  <g id="axes_3">
   <g id="patch_14">
    <path d="M 1161.317647 270.72 
L 1555.2 270.72 
L 1555.2 69.12 
L 1161.317647 69.12 
z
" style="fill: #eeeeee"/>
   </g>
   <g id="matplotlib.axis_5"/>
   <g id="matplotlib.axis_6"/>
   <g id="line2d_13">
    <path d="M 1179.22139 261.556364 
L 1235.651527 261.556364 
L 1235.838073 78.283636 
L 1244.419184 78.283636 
L 1244.60573 261.556364 
L 1302.808053 261.556364 
L 1302.994599 78.283636 
L 1311.575711 78.283636 
L 1311.762256 261.556364 
L 1386.753711 261.556364 
L 1386.940257 78.283636 
L 1395.521368 78.283636 
L 1395.707914 261.556364 
L 1453.910237 261.556364 
L 1454.096783 78.283636 
L 1462.677894 78.283636 
L 1462.86444 261.556364 
L 1537.296257 261.556364 
L 1537.296257 261.556364 
" clip-path="url(#pe6555b6603)" style="fill: none; stroke: #de1334; stroke-width: 2; stroke-linecap: round"/>
   </g>
   <g id="line2d_14">
    <path d="M 1179.22139 78.283636 
L 1235.7448 78.283636 
L 1235.931346 261.556364 
L 1244.512457 261.556364 
L 1244.699003 78.283636 
L 1302.901326 78.283636 
L 1303.087872 261.556364 
L 1311.668984 261.556364 
L 1311.855529 78.283636 
L 1386.846984 78.283636 
L 1387.03353 261.556364 
L 1395.614641 261.556364 
L 1395.801187 78.283636 
L 1454.00351 78.283636 
L 1454.190056 261.556364 
L 1462.771167 261.556364 
L 1462.957713 78.283636 
L 1537.296257 78.283636 
L 1537.296257 78.283636 
" clip-path="url(#pe6555b6603)" style="fill: none; stroke-dasharray: 7.4,3.2; stroke-dashoffset: 0; stroke: #6752ff; stroke-width: 2"/>
   </g>
   <g id="line2d_15">
    <path d="M 1179.22139 191.305741 
L 1182.299398 128.003575 
L 1185.190859 124.738431 
L 1188.268867 105.243628 
L 1191.160328 102.76223 
L 1194.145063 106.06326 
L 1197.129797 94.756045 
L 1200.114532 118.661385 
L 1203.099266 99.995445 
L 1206.084001 102.6888 
L 1209.068735 92.765305 
L 1212.05347 104.242999 
L 1215.131477 98.898685 
L 1218.116212 89.920578 
L 1221.007673 90.791935 
L 1223.992408 103.693482 
L 1226.977142 96.449272 
L 1229.961877 121.980854 
L 1233.039884 100.311168 
L 1235.838073 96.21242 
L 1235.931346 96.867418 
L 1238.91608 251.601027 
L 1241.900815 237.60153 
L 1244.978822 196.276839 
L 1247.870284 129.032694 
L 1250.855018 160.208003 
L 1253.839753 87.999052 
L 1256.824487 87.448411 
L 1259.902495 97.894538 
L 1262.793956 101.956996 
L 1265.871964 92.638359 
L 1268.763425 78.55042 
L 1271.74816 102.401698 
L 1274.732894 99.632225 
L 1277.624356 101.841935 
L 1277.717629 101.731735 
L 1280.795636 82.869142 
L 1283.687098 78.283658 
L 1287.044924 80.103122 
L 1289.656567 82.280573 
L 1292.641301 91.713169 
L 1295.626036 90.443189 
L 1298.61077 85.485036 
L 1301.502232 90.51769 
L 1301.595505 91.520013 
L 1304.860058 180.534235 
L 1307.564974 232.364653 
L 1310.456435 229.188915 
L 1310.549708 227.535656 
L 1313.534443 90.865715 
L 1316.61245 118.97548 
L 1319.410639 129.074369 
L 1319.503912 129.043138 
L 1322.675192 109.280481 
L 1325.473381 100.458258 
L 1329.670663 107.94274 
L 1331.349577 110.72756 
L 1331.44285 110.548561 
L 1334.520857 90.492204 
L 1337.412319 87.24846 
L 1340.490326 90.360888 
L 1343.754879 96.377044 
L 1346.273249 102.159362 
L 1346.366522 102.079672 
L 1349.351257 89.170969 
L 1352.335991 101.861959 
L 1355.227453 102.08651 
L 1355.413998 101.331319 
L 1358.30546 85.897369 
L 1361.290194 91.048635 
L 1364.274929 87.352925 
L 1367.259663 90.51958 
L 1370.151125 85.059735 
L 1370.244398 85.364534 
L 1373.229132 108.036128 
L 1376.213867 99.027915 
L 1379.105329 97.467424 
L 1379.291874 96.701615 
L 1382.090063 82.386655 
L 1382.183336 82.434305 
L 1385.074797 96.352683 
L 1385.354616 102.08201 
L 1389.458626 199.214474 
L 1391.137539 239.735469 
L 1394.029001 245.015955 
L 1394.215547 238.23764 
L 1397.107008 108.364293 
L 1400.185016 117.498175 
L 1403.16975 120.887404 
L 1405.967939 121.488623 
L 1406.247758 119.931923 
L 1409.045946 102.586749 
L 1412.030681 107.300196 
L 1415.015415 117.293101 
L 1418.00015 111.209315 
L 1420.891611 111.659413 
L 1421.264703 112.533828 
L 1423.876346 119.16004 
L 1424.062892 118.672266 
L 1426.86108 108.643945 
L 1426.954353 108.735466 
L 1429.845815 117.456774 
L 1430.032361 116.416151 
L 1432.923822 96.5605 
L 1436.561468 107.370327 
L 1438.800018 114.802953 
L 1438.986564 114.379564 
L 1441.878026 105.551792 
L 1447.754222 113.820817 
L 1448.034041 112.144292 
L 1450.738956 94.115369 
L 1450.832229 94.241628 
L 1453.723691 105.544746 
L 1454.190056 123.382872 
L 1456.801698 225.677131 
L 1459.69316 261.556364 
L 1459.786433 261.382088 
L 1462.677894 244.561169 
L 1463.237532 221.08291 
L 1465.755902 115.520981 
L 1469.393547 122.380418 
L 1471.632098 127.134076 
L 1471.911917 126.605304 
L 1474.616832 120.787199 
L 1474.989924 122.263259 
L 1477.601567 133.325353 
L 1477.881386 132.465237 
L 1480.679574 122.86473 
L 1483.571036 120.242391 
L 1484.130674 121.28073 
L 1486.649043 126.001911 
L 1489.540505 126.886562 
L 1490.379961 131.017885 
L 1492.525239 141.724602 
L 1492.805058 141.127162 
L 1495.69652 133.842326 
L 1498.774527 122.895655 
L 1501.479443 116.521065 
L 1502.03908 117.874536 
L 1504.464177 123.935819 
L 1504.930542 123.387952 
L 1507.448912 120.25668 
L 1508.288368 121.134776 
L 1510.433646 123.424689 
L 1511.552922 118.867093 
L 1513.418381 111.210812 
L 1514.630929 125.024145 
L 1516.496388 145.538804 
L 1519.38785 149.553536 
L 1521.253309 132.138131 
L 1522.372584 121.658818 
L 1523.585133 131.366172 
L 1525.450592 145.758833 
L 1528.342053 148.354495 
L 1531.326788 157.259696 
L 1534.311522 140.59637 
L 1534.404795 141.085553 
L 1537.296257 156.513702 
L 1537.296257 156.513702 
" clip-path="url(#pe6555b6603)" style="fill: none; stroke: #0b2735; stroke-width: 2; stroke-linecap: round"/>
   </g>
   <g id="patch_15">
    <path d="M 1161.317647 270.72 
L 1161.317647 69.12 
" style="fill: none; stroke: #bcbcbc; stroke-width: 0.8; stroke-linejoin: miter; stroke-linecap: square"/>
   </g>
   <g id="patch_16">
    <path d="M 1555.2 270.72 
L 1555.2 69.12 
" style="fill: none; stroke: #bcbcbc; stroke-width: 0.8; stroke-linejoin: miter; stroke-linecap: square"/>
   </g>
   <g id="patch_17">
    <path d="M 1161.317647 270.72 
L 1555.2 270.72 
" style="fill: none; stroke: #bcbcbc; stroke-width: 0.8; stroke-linejoin: miter; stroke-linecap: square"/>
   </g>
   <g id="patch_18">
    <path d="M 1161.317647 69.12 
L 1555.2 69.12 
" style="fill: none; stroke: #bcbcbc; stroke-width: 0.8; stroke-linejoin: miter; stroke-linecap: square"/>
   </g>
   <g id="text_9">
    <text style="fill: #262626; font: 14.4px 'Serif'; text-anchor: middle" x="1358.258824" y="63.12" transform="rotate(-0 1358.258824 63.12)">Current Label: 0 | Prediction: 0 | Confidence: 0.21</text>
   </g>
   <g id="legend_3">
    <g id="patch_19">
     <path d="M 1168.317647 265.72 
L 1249.908272 265.72 
Q 1251.908272 265.72 1251.908272 263.72 
L 1251.908272 220.4075 
Q 1251.908272 218.4075 1249.908272 218.4075 
L 1168.317647 218.4075 
Q 1166.317647 218.4075 1166.317647 220.4075 
L 1166.317647 263.72 
Q 1166.317647 265.72 1168.317647 265.72 
z
" style="fill: #eeeeee; opacity: 0.8; stroke: #cccccc; stroke-width: 0.5; stroke-linejoin: miter"/>
    </g>
    <g id="line2d_16">
     <path d="M 1170.317647 226.505937 
L 1180.317647 226.505937 
L 1190.317647 226.505937 
" style="fill: none; stroke: #de1334; stroke-width: 2; stroke-linecap: round"/>
    </g>
    <g id="text_10">
     <text style="font: 10px 'Serif'; text-anchor: start" x="1198.317647" y="230.005937" transform="rotate(-0 1198.317647 230.005937)">cause</text>
    </g>
    <g id="line2d_17">
     <path d="M 1170.317647 241.184062 
L 1180.317647 241.184062 
L 1190.317647 241.184062 
" style="fill: none; stroke-dasharray: 7.4,3.2; stroke-dashoffset: 0; stroke: #6752ff; stroke-width: 2"/>
    </g>
    <g id="text_11">
     <text style="font: 10px 'Serif'; text-anchor: start" x="1198.317647" y="244.684062" transform="rotate(-0 1198.317647 244.684062)">result</text>
    </g>
    <g id="line2d_18">
     <path d="M 1170.317647 255.862187 
L 1180.317647 255.862187 
L 1190.317647 255.862187 
" style="fill: none; stroke: #0b2735; stroke-width: 2; stroke-linecap: round"/>
    </g>
    <g id="text_12">
     <text style="font: 10px 'Serif'; text-anchor: start" x="1198.317647" y="259.362187" transform="rotate(-0 1198.317647 259.362187)">grad_cam</text>
    </g>
   </g>
  </g>
  <g id="axes_4">
   <g id="patch_20">
    <path d="M 216 512.64 
L 609.882353 512.64 
L 609.882353 311.04 
L 216 311.04 
z
" style="fill: #eeeeee"/>
   </g>
   <g id="matplotlib.axis_7"/>
   <g id="matplotlib.axis_8"/>
   <g id="line2d_19">
    <path d="M 233.903743 503.476364 
L 248.827416 503.476364 
L 249.013962 320.203636 
L 332.773073 320.203636 
L 332.959619 503.476364 
L 366.351336 503.476364 
L 366.537882 320.203636 
L 483.875257 320.203636 
L 484.061803 503.476364 
L 551.031783 503.476364 
L 551.218329 320.203636 
L 591.97861 320.203636 
L 591.97861 320.203636 
" clip-path="url(#pd774346f4c)" style="fill: none; stroke: #de1334; stroke-width: 2; stroke-linecap: round"/>
   </g>
   <g id="line2d_20">
    <path d="M 233.903743 320.203636 
L 248.920689 320.203636 
L 249.107235 503.476364 
L 332.866346 503.476364 
L 333.052892 320.203636 
L 366.444609 320.203636 
L 366.631155 503.476364 
L 483.96853 503.476364 
L 484.155076 320.203636 
L 551.125056 320.203636 
L 551.311602 503.476364 
L 591.97861 503.476364 
L 591.97861 503.476364 
" clip-path="url(#pd774346f4c)" style="fill: none; stroke-dasharray: 7.4,3.2; stroke-dashoffset: 0; stroke: #6752ff; stroke-width: 2"/>
   </g>
   <g id="line2d_21">
    <path d="M 233.903743 406.083211 
L 236.981751 434.991394 
L 239.966485 438.158704 
L 242.857947 444.470215 
L 245.842681 410.124903 
L 249.013962 438.611331 
L 251.81215 452.669059 
L 254.796885 428.910831 
L 257.781619 443.086232 
L 261.232719 387.681586 
L 263.751088 340.531452 
L 267.761825 349.271145 
L 269.720557 353.848054 
L 272.705292 349.757936 
L 275.690026 353.130539 
L 278.674761 336.024227 
L 281.752768 341.718061 
L 284.64423 341.97249 
L 287.628964 339.014209 
L 290.613699 328.964412 
L 293.598433 340.630226 
L 296.583168 325.063365 
L 299.567902 327.314083 
L 302.552637 333.968948 
L 305.537371 329.123049 
L 308.522106 335.877202 
L 311.50684 329.830896 
L 314.491575 331.620429 
L 317.662855 325.406955 
L 321.580319 321.70634 
L 323.445778 320.257677 
L 326.430513 334.652337 
L 329.415247 335.067959 
L 332.306709 327.924358 
L 332.399982 328.936545 
L 335.384716 464.902209 
L 338.462724 460.258508 
L 341.354185 458.89009 
L 344.245647 461.939146 
L 344.33892 461.815154 
L 347.323654 442.097537 
L 350.308389 443.482317 
L 353.293123 441.677469 
L 356.930768 432.518413 
L 359.355865 427.00331 
L 362.247327 415.645255 
L 365.138788 415.246833 
L 365.232061 415.85654 
L 368.216796 468.617844 
L 371.574622 419.53315 
L 374.466083 388.207047 
L 377.637364 365.218463 
L 380.99519 346.089273 
L 383.140468 335.253043 
L 386.125203 337.385476 
L 389.109937 329.581864 
L 392.37449 338.375652 
L 394.986133 347.428326 
L 395.079406 347.334577 
L 398.06414 328.355361 
L 401.328694 332.396769 
L 404.406701 334.82653 
L 407.111617 336.122083 
L 409.909806 335.661214 
L 410.096351 335.270521 
L 412.987813 327.457896 
L 417.185096 328.773757 
L 418.957282 329.298422 
L 422.408381 335.897619 
L 424.833478 339.67315 
L 424.926751 339.593209 
L 427.818212 331.008013 
L 427.911485 331.039572 
L 430.802947 340.110095 
L 430.89622 340.069731 
L 433.974227 330.018689 
L 436.865689 325.824925 
L 439.850423 327.377922 
L 442.835158 326.386217 
L 445.819892 328.487562 
L 448.804627 334.143338 
L 451.975907 331.750522 
L 454.680823 328.400979 
L 454.867369 328.780978 
L 457.75883 336.630929 
L 460.836838 330.413009 
L 463.635026 328.155781 
L 463.821572 328.567383 
L 466.713034 336.609759 
L 469.884314 333.355953 
L 472.58923 332.217956 
L 472.869049 333.530965 
L 475.667237 347.960505 
L 478.931791 340.301646 
L 481.543433 336.155685 
L 481.823252 338.948327 
L 484.528168 369.528097 
L 484.994533 386.749842 
L 487.606175 484.9042 
L 490.497637 484.429956 
L 490.870729 482.654312 
L 494.042009 466.977339 
L 497.026744 455.132411 
L 500.011478 445.732412 
L 502.716394 438.901923 
L 505.421309 434.919553 
L 505.701128 435.576484 
L 508.406044 442.83206 
L 508.59259 442.347853 
L 511.76387 431.54139 
L 514.655332 419.452094 
L 517.360247 412.14842 
L 517.640066 413.122985 
L 520.344982 423.791895 
L 520.438255 423.715924 
L 523.329716 417.920792 
L 524.169173 413.153381 
L 526.314451 400.798444 
L 526.500997 401.558671 
L 529.485731 416.234436 
L 532.563739 423.4162 
L 535.268654 427.125936 
L 535.735019 425.969269 
L 538.346662 418.918871 
L 541.238123 402.479316 
L 541.704488 407.71982 
L 544.316131 437.373417 
L 547.394138 436.011938 
L 550.192327 433.582434 
L 551.031783 453.049462 
L 553.177061 503.476364 
L 553.270334 503.279477 
L 557.187798 482.272152 
L 559.14653 470.990061 
L 560.638897 434.631173 
L 562.224538 397.67945 
L 565.115999 389.473106 
L 567.541096 372.399762 
L 568.100734 368.452966 
L 568.194007 368.472127 
L 571.085468 370.56518 
L 572.577835 369.138365 
L 574.163476 367.722441 
L 577.521302 368.538773 
L 580.039672 368.614979 
L 583.024406 360.907475 
L 586.009141 384.988056 
L 586.102414 384.76452 
L 589.273694 376.318102 
L 591.97861 366.608596 
L 591.97861 366.608596 
" clip-path="url(#pd774346f4c)" style="fill: none; stroke: #0b2735; stroke-width: 2; stroke-linecap: round"/>
   </g>
   <g id="patch_21">
    <path d="M 216 512.64 
L 216 311.04 
" style="fill: none; stroke: #bcbcbc; stroke-width: 0.8; stroke-linejoin: miter; stroke-linecap: square"/>
   </g>
   <g id="patch_22">
    <path d="M 609.882353 512.64 
L 609.882353 311.04 
" style="fill: none; stroke: #bcbcbc; stroke-width: 0.8; stroke-linejoin: miter; stroke-linecap: square"/>
   </g>
   <g id="patch_23">
    <path d="M 216 512.64 
L 609.882353 512.64 
" style="fill: none; stroke: #bcbcbc; stroke-width: 0.8; stroke-linejoin: miter; stroke-linecap: square"/>
   </g>
   <g id="patch_24">
    <path d="M 216 311.04 
L 609.882353 311.04 
" style="fill: none; stroke: #bcbcbc; stroke-width: 0.8; stroke-linejoin: miter; stroke-linecap: square"/>
   </g>
   <g id="text_13">
    <text style="fill: #262626; font: 14.4px 'Serif'; text-anchor: middle" x="412.941176" y="305.04" transform="rotate(-0 412.941176 305.04)">Current Label: 0 | Prediction: 0 | Confidence: 0.25</text>
   </g>
   <g id="legend_4">
    <g id="patch_25">
     <path d="M 223 507.64 
L 304.590625 507.64 
Q 306.590625 507.64 306.590625 505.64 
L 306.590625 462.3275 
Q 306.590625 460.3275 304.590625 460.3275 
L 223 460.3275 
Q 221 460.3275 221 462.3275 
L 221 505.64 
Q 221 507.64 223 507.64 
z
" style="fill: #eeeeee; opacity: 0.8; stroke: #cccccc; stroke-width: 0.5; stroke-linejoin: miter"/>
    </g>
    <g id="line2d_22">
     <path d="M 225 468.425938 
L 235 468.425938 
L 245 468.425938 
" style="fill: none; stroke: #de1334; stroke-width: 2; stroke-linecap: round"/>
    </g>
    <g id="text_14">
     <text style="font: 10px 'Serif'; text-anchor: start" x="253" y="471.925938" transform="rotate(-0 253 471.925938)">cause</text>
    </g>
    <g id="line2d_23">
     <path d="M 225 483.104063 
L 235 483.104063 
L 245 483.104063 
" style="fill: none; stroke-dasharray: 7.4,3.2; stroke-dashoffset: 0; stroke: #6752ff; stroke-width: 2"/>
    </g>
    <g id="text_15">
     <text style="font: 10px 'Serif'; text-anchor: start" x="253" y="486.604063" transform="rotate(-0 253 486.604063)">result</text>
    </g>
    <g id="line2d_24">
     <path d="M 225 497.782188 
L 235 497.782188 
L 245 497.782188 
" style="fill: none; stroke: #0b2735; stroke-width: 2; stroke-linecap: round"/>
    </g>
    <g id="text_16">
     <text style="font: 10px 'Serif'; text-anchor: start" x="253" y="501.282188" transform="rotate(-0 253 501.282188)">grad_cam</text>
    </g>
   </g>
  </g>
  <g id="axes_5">
   <g id="patch_26">
    <path d="M 688.658824 512.64 
L 1082.541176 512.64 
L 1082.541176 311.04 
L 688.658824 311.04 
z
" style="fill: #eeeeee"/>
   </g>
   <g id="matplotlib.axis_9"/>
   <g id="matplotlib.axis_10"/>
   <g id="line2d_25">
    <path d="M 706.562567 503.476364 
L 721.392966 503.476364 
L 721.579512 320.203636 
L 738.182098 320.203636 
L 738.368644 503.476364 
L 754.971229 503.476364 
L 755.157775 320.203636 
L 805.338624 320.203636 
L 805.52517 503.476364 
L 822.127756 503.476364 
L 822.314301 320.203636 
L 838.916887 320.203636 
L 839.103433 503.476364 
L 872.49515 503.476364 
L 872.681696 320.203636 
L 889.284282 320.203636 
L 889.470828 503.476364 
L 906.073413 503.476364 
L 906.259959 320.203636 
L 956.440808 320.203636 
L 956.627354 503.476364 
L 973.229939 503.476364 
L 973.416485 320.203636 
L 990.019071 320.203636 
L 990.205617 503.476364 
L 1023.597334 503.476364 
L 1023.78388 320.203636 
L 1040.386465 320.203636 
L 1040.573011 503.476364 
L 1057.175597 503.476364 
L 1057.362143 320.203636 
L 1064.637433 320.203636 
L 1064.637433 320.203636 
" clip-path="url(#p0829bdd717)" style="fill: none; stroke: #de1334; stroke-width: 2; stroke-linecap: round"/>
   </g>
   <g id="line2d_26">
    <path d="M 706.562567 320.203636 
L 721.486239 320.203636 
L 721.672785 503.476364 
L 738.275371 503.476364 
L 738.461917 320.203636 
L 755.064502 320.203636 
L 755.251048 503.476364 
L 805.431897 503.476364 
L 805.618443 320.203636 
L 822.221028 320.203636 
L 822.407574 503.476364 
L 839.01016 503.476364 
L 839.196706 320.203636 
L 872.588423 320.203636 
L 872.774969 503.476364 
L 889.377555 503.476364 
L 889.5641 320.203636 
L 906.166686 320.203636 
L 906.353232 503.476364 
L 956.534081 503.476364 
L 956.720627 320.203636 
L 973.323212 320.203636 
L 973.509758 503.476364 
L 990.112344 503.476364 
L 990.29889 320.203636 
L 1023.690607 320.203636 
L 1023.877153 503.476364 
L 1040.479738 503.476364 
L 1040.666284 320.203636 
L 1057.26887 320.203636 
L 1057.455416 503.476364 
L 1064.637433 503.476364 
L 1064.637433 503.476364 
" clip-path="url(#p0829bdd717)" style="fill: none; stroke-dasharray: 7.4,3.2; stroke-dashoffset: 0; stroke: #6752ff; stroke-width: 2"/>
   </g>
   <g id="line2d_27">
    <path d="M 706.562567 360.4956 
L 709.640574 437.133124 
L 715.51677 453.675659 
L 718.501505 429.312274 
L 718.594778 429.352867 
L 721.486239 430.595041 
L 724.470974 419.472943 
L 730.440443 470.035196 
L 733.425177 434.262185 
L 736.409912 356.936559 
L 739.394646 470.285458 
L 742.472654 449.354293 
L 745.457388 447.599318 
L 748.34885 443.593954 
L 751.333584 448.389472 
L 756.836688 410.355616 
L 757.303053 407.440637 
L 760.381061 439.497177 
L 763.179249 447.279881 
L 763.272522 447.18658 
L 766.443803 382.007654 
L 769.241991 347.339416 
L 772.319999 354.767737 
L 775.304733 356.976671 
L 778.196195 355.98797 
L 781.180929 371.658095 
L 784.165664 350.103972 
L 787.150398 359.671588 
L 790.321679 343.493262 
L 793.21314 323.106719 
L 796.011329 320.203658 
L 796.104602 320.351765 
L 799.089336 348.31645 
L 803.379892 338.814454 
L 804.965532 335.520077 
L 805.058805 336.64631 
L 808.04354 482.701901 
L 811.121547 478.186137 
L 814.013009 477.894182 
L 816.997743 472.054663 
L 820.075751 446.53983 
L 822.873939 441.048602 
L 822.967212 441.141143 
L 825.951947 462.097818 
L 828.936681 452.53286 
L 831.828143 434.466784 
L 832.014689 430.474348 
L 834.90615 348.474082 
L 837.797612 350.232405 
L 837.890885 351.414513 
L 840.968892 451.186352 
L 843.860354 471.343725 
L 846.938361 457.208172 
L 849.829823 450.629932 
L 852.90783 433.901128 
L 855.706019 430.938172 
L 855.799292 431.128553 
L 858.784026 449.745374 
L 862.048579 435.608666 
L 864.753495 427.182287 
L 867.73823 434.360102 
L 870.629691 428.091375 
L 870.816237 426.214571 
L 873.614426 389.859266 
L 873.707699 390.021006 
L 876.692433 444.535185 
L 879.583895 439.795963 
L 879.77044 438.30775 
L 882.661902 408.414722 
L 885.646636 350.365698 
L 888.538098 361.2976 
L 888.724644 365.563353 
L 891.616105 448.189073 
L 894.507567 443.336155 
L 894.60084 443.713101 
L 897.585574 470.587354 
L 900.663582 460.028194 
L 903.555043 455.954735 
L 906.539778 446.576426 
L 909.431239 445.745679 
L 909.617785 446.569554 
L 912.415974 462.568254 
L 912.509247 462.363499 
L 915.400708 439.105261 
L 915.680527 432.275913 
L 918.478716 358.108694 
L 921.46345 359.05194 
L 924.354912 357.040915 
L 924.541458 357.521348 
L 927.432919 366.945773 
L 930.417654 360.23915 
L 933.402388 359.51258 
L 936.387123 362.358847 
L 939.278584 358.2302 
L 939.651676 355.693648 
L 942.356592 336.275171 
L 945.248053 332.297198 
L 945.527872 334.990847 
L 948.326061 364.979404 
L 951.217522 360.228445 
L 951.590614 357.092563 
L 954.202257 333.623141 
L 954.388803 339.591046 
L 957.373537 453.140606 
L 960.358272 490.031447 
L 963.15646 503.476364 
L 963.343006 502.835245 
L 966.700833 486.251615 
L 969.312475 471.961876 
L 972.110664 465.844103 
L 972.483756 458.338812 
L 975.095398 402.568728 
L 975.188671 403.191358 
L 978.173406 449.988802 
L 981.064867 454.844277 
L 981.437959 448.314599 
L 984.236148 398.017316 
L 987.034336 379.52429 
L 987.314155 383.311073 
L 990.29889 429.681387 
L 993.097078 484.366577 
L 995.98854 483.522888 
L 996.548178 480.460647 
L 999.066547 466.550572 
L 1001.958009 461.640705 
L 1002.424374 463.838365 
L 1005.036016 476.347772 
L 1007.927478 475.590265 
L 1008.580388 471.613796 
L 1010.912212 457.097605 
L 1011.005485 457.161843 
L 1014.176766 462.985402 
L 1017.068227 466.144628 
L 1019.866416 471.225244 
L 1020.332781 470.040301 
L 1022.85115 463.3603 
L 1023.970426 449.942583 
L 1025.835885 427.408756 
L 1026.208977 430.638496 
L 1030.499532 469.277143 
L 1031.805354 480.568513 
L 1032.64481 459.143997 
L 1034.790088 403.63819 
L 1034.883361 403.962116 
L 1037.774823 421.717783 
L 1038.241187 420.4068 
L 1040.759557 412.984197 
L 1042.251924 455.251525 
L 1043.744292 497.714096 
L 1043.837565 497.564732 
L 1046.822299 487.520481 
L 1049.713761 487.04624 
L 1052.605222 477.199785 
L 1052.698495 476.881752 
L 1053.911044 478.781187 
L 1055.68323 481.579956 
L 1058.667964 397.706487 
L 1061.652699 498.912681 
L 1061.745972 498.628736 
L 1064.637433 488.927776 
L 1064.637433 488.927776 
" clip-path="url(#p0829bdd717)" style="fill: none; stroke: #0b2735; stroke-width: 2; stroke-linecap: round"/>
   </g>
   <g id="patch_27">
    <path d="M 688.658824 512.64 
L 688.658824 311.04 
" style="fill: none; stroke: #bcbcbc; stroke-width: 0.8; stroke-linejoin: miter; stroke-linecap: square"/>
   </g>
   <g id="patch_28">
    <path d="M 1082.541176 512.64 
L 1082.541176 311.04 
" style="fill: none; stroke: #bcbcbc; stroke-width: 0.8; stroke-linejoin: miter; stroke-linecap: square"/>
   </g>
   <g id="patch_29">
    <path d="M 688.658824 512.64 
L 1082.541176 512.64 
" style="fill: none; stroke: #bcbcbc; stroke-width: 0.8; stroke-linejoin: miter; stroke-linecap: square"/>
   </g>
   <g id="patch_30">
    <path d="M 688.658824 311.04 
L 1082.541176 311.04 
" style="fill: none; stroke: #bcbcbc; stroke-width: 0.8; stroke-linejoin: miter; stroke-linecap: square"/>
   </g>
   <g id="text_17">
    <text style="fill: #262626; font: 14.4px 'Serif'; text-anchor: middle" x="885.6" y="305.04" transform="rotate(-0 885.6 305.04)">Current Label: 0 | Prediction: 0 | Confidence: 0.25</text>
   </g>
   <g id="legend_5">
    <g id="patch_31">
     <path d="M 695.658824 507.64 
L 777.249449 507.64 
Q 779.249449 507.64 779.249449 505.64 
L 779.249449 462.3275 
Q 779.249449 460.3275 777.249449 460.3275 
L 695.658824 460.3275 
Q 693.658824 460.3275 693.658824 462.3275 
L 693.658824 505.64 
Q 693.658824 507.64 695.658824 507.64 
z
" style="fill: #eeeeee; opacity: 0.8; stroke: #cccccc; stroke-width: 0.5; stroke-linejoin: miter"/>
    </g>
    <g id="line2d_28">
     <path d="M 697.658824 468.425938 
L 707.658824 468.425938 
L 717.658824 468.425938 
" style="fill: none; stroke: #de1334; stroke-width: 2; stroke-linecap: round"/>
    </g>
    <g id="text_18">
     <text style="font: 10px 'Serif'; text-anchor: start" x="725.658824" y="471.925938" transform="rotate(-0 725.658824 471.925938)">cause</text>
    </g>
    <g id="line2d_29">
     <path d="M 697.658824 483.104063 
L 707.658824 483.104063 
L 717.658824 483.104063 
" style="fill: none; stroke-dasharray: 7.4,3.2; stroke-dashoffset: 0; stroke: #6752ff; stroke-width: 2"/>
    </g>
    <g id="text_19">
     <text style="font: 10px 'Serif'; text-anchor: start" x="725.658824" y="486.604063" transform="rotate(-0 725.658824 486.604063)">result</text>
    </g>
    <g id="line2d_30">
     <path d="M 697.658824 497.782188 
L 707.658824 497.782188 
L 717.658824 497.782188 
" style="fill: none; stroke: #0b2735; stroke-width: 2; stroke-linecap: round"/>
    </g>
    <g id="text_20">
     <text style="font: 10px 'Serif'; text-anchor: start" x="725.658824" y="501.282188" transform="rotate(-0 725.658824 501.282188)">grad_cam</text>
    </g>
   </g>
  </g>
  <g id="axes_6">
   <g id="patch_32">
    <path d="M 1161.317647 512.64 
L 1555.2 512.64 
L 1555.2 311.04 
L 1161.317647 311.04 
z
" style="fill: #eeeeee"/>
   </g>
   <g id="matplotlib.axis_11"/>
   <g id="matplotlib.axis_12"/>
   <g id="line2d_31">
    <path d="M 1179.22139 503.476364 
L 1185.750497 503.476364 
L 1185.937043 320.203636 
L 1202.539629 320.203636 
L 1202.726175 503.476364 
L 1219.32876 503.476364 
L 1219.515306 320.203636 
L 1286.485286 320.203636 
L 1286.671832 503.476364 
L 1336.852681 503.476364 
L 1337.039227 320.203636 
L 1353.641812 320.203636 
L 1353.828358 503.476364 
L 1370.430944 503.476364 
L 1370.61749 320.203636 
L 1437.58747 320.203636 
L 1437.774016 503.476364 
L 1487.954865 503.476364 
L 1488.14141 320.203636 
L 1504.743996 320.203636 
L 1504.930542 503.476364 
L 1521.533128 503.476364 
L 1521.719674 320.203636 
L 1537.296257 320.203636 
L 1537.296257 320.203636 
" clip-path="url(#pddbe49c354)" style="fill: none; stroke: #de1334; stroke-width: 2; stroke-linecap: round"/>
   </g>
   <g id="line2d_32">
    <path d="M 1179.22139 320.203636 
L 1185.84377 320.203636 
L 1186.030316 503.476364 
L 1202.632902 503.476364 
L 1202.819447 320.203636 
L 1219.422033 320.203636 
L 1219.608579 503.476364 
L 1286.578559 503.476364 
L 1286.765105 320.203636 
L 1336.945954 320.203636 
L 1337.1325 503.476364 
L 1353.735085 503.476364 
L 1353.921631 320.203636 
L 1370.524217 320.203636 
L 1370.710763 503.476364 
L 1437.680743 503.476364 
L 1437.867289 320.203636 
L 1488.048138 320.203636 
L 1488.234683 503.476364 
L 1504.837269 503.476364 
L 1505.023815 320.203636 
L 1521.626401 320.203636 
L 1521.812946 503.476364 
L 1537.296257 503.476364 
L 1537.296257 503.476364 
" clip-path="url(#pddbe49c354)" style="fill: none; stroke-dasharray: 7.4,3.2; stroke-dashoffset: 0; stroke: #6752ff; stroke-width: 2"/>
   </g>
   <g id="line2d_33">
    <path d="M 1179.22139 376.720189 
L 1182.299398 434.484377 
L 1185.190859 441.256412 
L 1188.175594 402.195371 
L 1191.160328 422.835654 
L 1194.238336 359.919899 
L 1197.129797 355.374801 
L 1200.860715 375.79169 
L 1203.099266 386.753436 
L 1206.177274 443.694754 
L 1209.068735 448.477573 
L 1212.05347 466.956403 
L 1215.038204 431.726971 
L 1218.022939 435.444261 
L 1221.007673 393.28638 
L 1223.992408 445.451329 
L 1226.977142 421.040905 
L 1229.961877 361.253249 
L 1232.946611 365.536087 
L 1235.931346 359.598813 
L 1238.91608 367.250277 
L 1241.900815 346.720161 
L 1244.978822 355.700235 
L 1247.870284 357.47207 
L 1250.855018 350.530016 
L 1253.839753 355.458521 
L 1256.824487 344.476839 
L 1259.809222 347.042624 
L 1263.167048 331.753067 
L 1265.871964 322.414952 
L 1268.670152 320.203658 
L 1268.763425 320.316142 
L 1271.74816 341.544721 
L 1274.826167 332.508619 
L 1277.717629 330.727345 
L 1280.702363 339.812473 
L 1283.593825 327.69902 
L 1283.687098 327.808663 
L 1286.671832 370.872699 
L 1289.656567 483.113395 
L 1295.626036 460.833982 
L 1298.61077 458.977282 
L 1301.688778 448.059766 
L 1304.766785 445.04041 
L 1307.564974 440.692957 
L 1310.456435 441.835478 
L 1310.549708 441.741718 
L 1313.627716 431.530897 
L 1316.519177 428.993973 
L 1319.503912 422.625342 
L 1322.395373 423.32599 
L 1322.488646 423.17364 
L 1325.659926 409.572809 
L 1328.364842 403.585383 
L 1328.458115 403.708714 
L 1331.44285 421.966324 
L 1334.520857 404.778481 
L 1337.319046 378.182845 
L 1337.412319 378.528095 
L 1340.397053 438.180896 
L 1343.381788 412.518238 
L 1346.273249 419.628657 
L 1346.366522 418.979728 
L 1349.351257 366.858775 
L 1352.242718 365.597785 
L 1352.429264 371.605573 
L 1355.320726 495.129422 
L 1358.30546 464.955976 
L 1361.196922 473.028085 
L 1361.290194 472.548118 
L 1364.368202 434.207156 
L 1367.259663 420.595385 
L 1370.244398 430.025944 
L 1373.13586 421.29014 
L 1373.229132 421.570251 
L 1376.213867 445.144771 
L 1379.105329 434.52638 
L 1379.291874 430.532452 
L 1382.183336 355.691922 
L 1385.16807 366.955069 
L 1388.152805 364.122468 
L 1391.137539 358.309136 
L 1394.122274 362.456802 
L 1397.107008 361.555241 
L 1399.99847 356.274373 
L 1400.091743 356.32789 
L 1402.983204 362.300622 
L 1403.16975 361.534158 
L 1406.061212 345.915037 
L 1409.139219 348.878671 
L 1411.937408 354.017789 
L 1412.123954 353.261462 
L 1415.015415 338.228288 
L 1417.906877 337.162651 
L 1418.186696 339.531052 
L 1420.984884 365.518969 
L 1424.062892 356.259845 
L 1426.954353 342.725431 
L 1429.845815 349.318893 
L 1430.032361 348.979837 
L 1432.830549 341.870275 
L 1433.017095 342.746427 
L 1435.815284 359.346208 
L 1436.188376 374.94559 
L 1438.893291 492.577822 
L 1441.784753 499.022511 
L 1441.971299 498.365753 
L 1444.86276 486.004695 
L 1447.754222 488.995601 
L 1448.127314 485.441134 
L 1450.832229 458.573529 
L 1453.816964 462.1629 
L 1456.708425 468.840588 
L 1456.894971 468.513805 
L 1459.786433 461.804899 
L 1462.677894 449.10714 
L 1462.86444 449.444016 
L 1465.662629 456.51358 
L 1465.942448 455.418792 
L 1468.927182 441.902742 
L 1471.632098 425.267965 
L 1471.911917 426.753038 
L 1474.710105 443.199 
L 1477.601567 442.234419 
L 1478.254477 443.126607 
L 1480.586301 446.409694 
L 1481.052666 444.716625 
L 1485.623041 427.792901 
L 1486.55577 424.445931 
L 1487.675046 412.121017 
L 1489.540505 391.414066 
L 1490.00687 402.605487 
L 1492.618512 465.4621 
L 1495.509974 455.199587 
L 1496.815795 440.325439 
L 1499.520711 410.596182 
L 1501.479443 390.584745 
L 1501.852535 392.959012 
L 1504.464177 410.68921 
L 1505.956544 456.978611 
L 1507.448912 503.476364 
L 1507.542185 503.390378 
L 1510.433646 492.292564 
L 1512.858743 469.706193 
L 1513.418381 464.485088 
L 1514.257837 473.144492 
L 1516.403115 495.588588 
L 1517.335845 485.613333 
L 1519.574396 462.471683 
L 1522.372584 448.765494 
L 1523.305314 451.294941 
L 1525.357319 456.925073 
L 1527.036232 452.727311 
L 1528.342053 449.449675 
L 1531.420061 431.243407 
L 1537.296257 376.686893 
L 1537.296257 376.686893 
" clip-path="url(#pddbe49c354)" style="fill: none; stroke: #0b2735; stroke-width: 2; stroke-linecap: round"/>
   </g>
   <g id="patch_33">
    <path d="M 1161.317647 512.64 
L 1161.317647 311.04 
" style="fill: none; stroke: #bcbcbc; stroke-width: 0.8; stroke-linejoin: miter; stroke-linecap: square"/>
   </g>
   <g id="patch_34">
    <path d="M 1555.2 512.64 
L 1555.2 311.04 
" style="fill: none; stroke: #bcbcbc; stroke-width: 0.8; stroke-linejoin: miter; stroke-linecap: square"/>
   </g>
   <g id="patch_35">
    <path d="M 1161.317647 512.64 
L 1555.2 512.64 
" style="fill: none; stroke: #bcbcbc; stroke-width: 0.8; stroke-linejoin: miter; stroke-linecap: square"/>
   </g>
   <g id="patch_36">
    <path d="M 1161.317647 311.04 
L 1555.2 311.04 
" style="fill: none; stroke: #bcbcbc; stroke-width: 0.8; stroke-linejoin: miter; stroke-linecap: square"/>
   </g>
   <g id="text_21">
    <text style="fill: #262626; font: 14.4px 'Serif'; text-anchor: middle" x="1358.258824" y="305.04" transform="rotate(-0 1358.258824 305.04)">Current Label: 0 | Prediction: 0 | Confidence: 0.26</text>
   </g>
   <g id="legend_6">
    <g id="patch_37">
     <path d="M 1168.317647 507.64 
L 1249.908272 507.64 
Q 1251.908272 507.64 1251.908272 505.64 
L 1251.908272 462.3275 
Q 1251.908272 460.3275 1249.908272 460.3275 
L 1168.317647 460.3275 
Q 1166.317647 460.3275 1166.317647 462.3275 
L 1166.317647 505.64 
Q 1166.317647 507.64 1168.317647 507.64 
z
" style="fill: #eeeeee; opacity: 0.8; stroke: #cccccc; stroke-width: 0.5; stroke-linejoin: miter"/>
    </g>
    <g id="line2d_34">
     <path d="M 1170.317647 468.425938 
L 1180.317647 468.425938 
L 1190.317647 468.425938 
" style="fill: none; stroke: #de1334; stroke-width: 2; stroke-linecap: round"/>
    </g>
    <g id="text_22">
     <text style="font: 10px 'Serif'; text-anchor: start" x="1198.317647" y="471.925938" transform="rotate(-0 1198.317647 471.925938)">cause</text>
    </g>
    <g id="line2d_35">
     <path d="M 1170.317647 483.104063 
L 1180.317647 483.104063 
L 1190.317647 483.104063 
" style="fill: none; stroke-dasharray: 7.4,3.2; stroke-dashoffset: 0; stroke: #6752ff; stroke-width: 2"/>
    </g>
    <g id="text_23">
     <text style="font: 10px 'Serif'; text-anchor: start" x="1198.317647" y="486.604063" transform="rotate(-0 1198.317647 486.604063)">result</text>
    </g>
    <g id="line2d_36">
     <path d="M 1170.317647 497.782188 
L 1180.317647 497.782188 
L 1190.317647 497.782188 
" style="fill: none; stroke: #0b2735; stroke-width: 2; stroke-linecap: round"/>
    </g>
    <g id="text_24">
     <text style="font: 10px 'Serif'; text-anchor: start" x="1198.317647" y="501.282188" transform="rotate(-0 1198.317647 501.282188)">grad_cam</text>
    </g>
   </g>
  </g>
 </g>
 <defs>
  <clipPath id="pe61333e57d">
   <rect x="216" y="69.12" width="393.882353" height="201.6"/>
  </clipPath>
  <clipPath id="p1506feae56">
   <rect x="688.658824" y="69.12" width="393.882353" height="201.6"/>
  </clipPath>
  <clipPath id="pe6555b6603">
   <rect x="1161.317647" y="69.12" width="393.882353" height="201.6"/>
  </clipPath>
  <clipPath id="pd774346f4c">
   <rect x="216" y="311.04" width="393.882353" height="201.6"/>
  </clipPath>
  <clipPath id="p0829bdd717">
   <rect x="688.658824" y="311.04" width="393.882353" height="201.6"/>
  </clipPath>
  <clipPath id="pddbe49c354">
   <rect x="1161.317647" y="311.04" width="393.882353" height="201.6"/>
  </clipPath>
 </defs>
</svg>
